<svg width="16" height="16" viewBox="0 0 16 16" fill="none" xmlns="http://www.w3.org/2000/svg">
<g id="Logo">
<path id="Subtract" fill-rule="evenodd" clip-rule="evenodd" d="M15.433 0.604803L11.3337 4.97732C12.0584 5.77612 12.5 6.83648 12.5 7.99998C12.5 10.4853 10.4853 12.5 8 12.5C6.94082 12.5 5.9671 12.134 5.19839 11.5217L1.16899 15.8197C1.42208 15.9355 1.7035 16 2 16H14C15.1046 16 16 15.1046 16 14V2C16 1.45732 15.7839 0.96513 15.433 0.604803ZM14.5559 0.0782636L10.5838 4.3152C9.85254 3.80152 8.96148 3.49998 8 3.49998C5.51472 3.49998 3.5 5.5147 3.5 7.99998C3.5 9.06565 3.87043 10.0448 4.48955 10.8157L0.390729 15.1878C0.145177 14.8556 0 14.4448 0 14V2C0 0.895431 0.895431 0 2 0H14C14.1929 0 14.3794 0.0273061 14.5559 0.0782636ZM8 4.49998C8.69656 4.49998 9.3456 4.70346 9.89091 5.05423L5.18238 10.0767C4.75351 9.49575 4.5 8.77747 4.5 7.99998C4.5 6.06699 6.067 4.49998 8 4.49998ZM10.6469 5.70995L5.88522 10.7891C6.4727 11.2352 7.20543 11.5 8 11.5C9.933 11.5 11.5 9.93298 11.5 7.99998C11.5 7.12431 11.1784 6.32374 10.6469 5.70995Z" fill="#0058C9"/>
</g>
</svg>
