<svg width="12" height="12" viewBox="0 0 12 12" fill="none" xmlns="http://www.w3.org/2000/svg">
<g id="Frame" clip-path="url(#clip0_16_605)">
<path id="Vector" fill-rule="evenodd" clip-rule="evenodd" d="M5.99946 0.199951C2.79708 0.199951 0.200001 2.7967 0.200001 6.00014C0.200001 8.56235 1.86172 10.7364 4.16648 11.5037C4.45667 11.5568 4.56242 11.3777 4.56242 11.2239C4.56242 11.086 4.55743 10.7215 4.55458 10.2376C2.94129 10.588 2.6009 9.45995 2.6009 9.45995C2.33706 8.78987 1.95679 8.61147 1.95679 8.61147C1.43018 8.25187 1.99667 8.25899 1.99667 8.25899C2.57882 8.29995 2.88503 8.85683 2.88503 8.85683C3.40238 9.74299 4.24268 9.48699 4.5731 9.33851C4.6258 8.96395 4.7757 8.70827 4.94126 8.56339C3.6534 8.41667 2.29932 7.9193 2.29932 5.69678C2.29932 5.06335 2.52542 4.54601 2.89642 4.14046C2.83661 3.99376 2.63758 3.40412 2.95339 2.60548C2.95339 2.60548 3.44012 2.44952 4.54818 3.19974C5.0107 3.0712 5.50704 3.00711 6.00018 3.00462C6.49296 3.00711 6.98895 3.0712 7.45218 3.19974C8.55952 2.44952 9.04552 2.60548 9.04552 2.60548C9.36208 3.40412 9.16304 3.99376 9.1036 4.14046C9.47528 4.54601 9.6996 5.06335 9.6996 5.69678C9.6996 7.92499 8.34336 8.41531 7.05162 8.55875C7.25955 8.73787 7.44506 9.09179 7.44506 9.63299C7.44506 10.4081 7.43794 11.0337 7.43794 11.2239C7.43794 11.3791 7.54262 11.5596 7.83673 11.503C10.1397 10.7343 11.8 8.56195 11.8 6.00014C11.8 2.7967 9.20288 0.199951 5.99946 0.199951Z" fill="black"/>
</g>
<defs>
<clipPath id="clip0_16_605">
<rect width="12" height="12" fill="white"/>
</clipPath>
</defs>
</svg>
