<svg width="24" height="25" viewBox="0 0 24 25" fill="none" xmlns="http://www.w3.org/2000/svg">
<g id="Logo">
<g clip-path="url(#clip0_16_757)">
<g id="Logo_2">
<path id="Subtract" fill-rule="evenodd" clip-rule="evenodd" d="M23.433 1.1048L16.829 8.149C17.8677 9.30106 18.5 10.8267 18.5 12.5C18.5 16.0898 15.5899 19 12 19C10.4774 19 9.07702 18.4764 7.96915 17.5996L1.54805 24.4487C1.69328 24.4823 1.84457 24.5 2 24.5H22C23.1046 24.5 24 23.6046 24 22.5V2.5C24 1.95732 23.7839 1.46513 23.433 1.1048ZM22.5559 0.578263L16.1046 7.45964C14.9854 6.54715 13.5566 5.99998 12 5.99998C8.41015 5.99998 5.5 8.91013 5.5 12.5C5.5 14.2073 6.15825 15.7609 7.2348 16.9207L0.770463 23.816L1.40354 24.4095C0.590292 24.1558 0 23.3968 0 22.5V2.5C0 1.39543 0.895431 0.5 2 0.5H22C22.1929 0.5 22.3794 0.527306 22.5559 0.578263ZM12 6.99998C13.292 6.99998 14.48 7.44549 15.4187 8.19127L7.9207 16.1891C7.03777 15.2134 6.5 13.9195 6.5 12.5C6.5 9.46241 8.96243 6.99998 12 6.99998ZM16.1422 8.88159L8.65596 16.867C9.58261 17.5776 10.742 18 12 18C15.0376 18 17.5 15.5375 17.5 12.5C17.5 11.1145 16.9877 9.84868 16.1422 8.88159Z" fill="#575E71"/>
</g>
</g>
</g>
<defs>
<clipPath id="clip0_16_757">
<rect y="0.5" width="24" height="24" rx="4" fill="white"/>
</clipPath>
</defs>
</svg>
